<svg xmlns="http://www.w3.org/2000/svg" width="366" height="166" viewBox="0 0 366 166">
  <path fill="#EE2722" d="M300.4,35.7 L279.7,35.7 L279.7,56.4 L300.4,56.4 C305.3,56.4 309.3,60.4 309.3,65.3 C309.3,70.2 305.3,74.2 300.4,74.2 L279.7,74.2 L279.7,94.9 L300.4,94.9 C316.7,94.9 330,81.6 330,65.3 C330,48.9 316.7,35.7 300.4,35.7 Z M182.4,145.2 C207.2,145.2 228.6,130.7 238.5,109.7 L264.9,109.7 L264.9,145.2 L279.7,145.2 L279.7,109.7 L300.4,109.7 C324.9,109.7 344.8,89.8 344.8,65.3 C344.8,40.8 324.9,20.9 300.4,20.9 L264.9,20.9 L264.9,74.2 L243.8,74.2 C239.5,44.1 213.6,20.9 182.3,20.9 L109.5,20.9 L37,145.2 L54.3,145.2 L75,109.7 L149.5,109.7 L149.5,145.2 L182.4,145.2 Z M365.5,65.3 C365.5,101.2 336.3,130.4 300.4,130.4 L300.4,165.9 L244.2,165.9 L244.2,138.2 C229,155.2 206.9,165.9 182.4,165.9 L128.8,165.9 L128.8,130.4 L86.9,130.4 L66.2,165.9 L0.5,165.9 L97.1,0.2 L182.3,0.2 C206.9,0.2 228.9,10.9 244.1,27.9 L244.1,0.2 L300.3,0.2 C336.3,0.2 365.5,29.3 365.5,65.3 Z M128.8,35.7 L128.8,74.2 L95.8,74.2 L83.7,94.9 L149.5,94.9 L149.5,35.7 L128.8,35.7 Z M229.7,83 C229.7,109.1 208.5,130.3 182.4,130.3 L164.3,130.3 L164.3,109.6 L182.4,109.6 C197.1,109.6 209,97.7 209,83 C209,68.3 197.1,56.4 182.4,56.4 L164.3,56.4 L164.3,35.7 L182.4,35.7 C208.5,35.7 229.7,56.9 229.7,83 L229.7,83 Z"/>
</svg>
