<svg xmlns="http://www.w3.org/2000/svg" width="327" height="97" viewBox="0 0 327 97">
  <g fill="none">
    <path fill="#105C8F" d="M149.2,79.4 C153.3,79.4 156.7,82.8 156.7,86.9 C156.7,91 153.3,94.3 149.2,94.3 C145.1,94.3 141.8,91 141.8,86.9 C141.8,82.8 145.1,79.4 149.2,79.4"/>
    <polyline fill="#F78C26" points="158.9 0 0 0 0 96.8 135.3 96.8 158.8 73.1 158.9 0 136.8 84.4"/>
    <path fill="#D1D2D4" d="M164.2,60.7 C164.2,76.3 169.5,86.9 185.8,86.9 C190,86.9 196.2,86.4 201.5,83.8 L201.5,71.4 C196.1,73.5 191.1,74.5 185.8,74.5 C178.5,74.5 177,67.9 177,60.6 C177,53.3 178.4,46.7 185.8,46.7 C191.1,46.7 196,47.8 201.5,49.9 L201.5,37.5 C196.3,34.9 190,34.4 185.8,34.4 C169.5,34.5 164.2,45.1 164.2,60.7 L164.2,60.7 Z M230.2,34.5 C212.7,34.5 208.7,45.3 208.7,60.7 C208.7,76.1 212.7,86.9 230.2,86.9 C247.9,86.9 251.7,76.1 251.7,60.7 C251.7,45.3 247.8,34.5 230.2,34.5 L230.2,34.5 Z M230.2,74.5 C222.2,74.5 221.3,68.3 221.3,60.6 C221.3,52.9 222.2,46.7 230.2,46.7 C238.1,46.7 239.1,52.9 239.1,60.6 C239.1,68.3 238.1,74.5 230.2,74.5 L230.2,74.5 Z M308.4,34.5 C304.3,34.5 298.8,36.2 294.9,38.8 C292.3,36.2 288.6,34.5 281.6,34.5 C278.2,34.5 273.6,35.8 270,37.8 L269.2,36.1 L260.2,36.1 L260.2,85.4 L273,85.4 L273,48.7 C275.1,47.8 277.8,46.7 281.6,46.7 C285,46.7 287,48.4 287,52 L287,85.2 L299.7,85.2 L299.7,48.7 C301.3,48 304,46.7 308.3,46.7 C311.6,46.7 313.7,48.4 313.7,52 L313.7,85.2 L326.4,85.2 L326.4,51.6 C326.5,41.1 321.2,34.5 308.4,34.5 L308.4,34.5 Z"/>
    <path fill="#FFF" d="M59.5,46.6 C63.1,42.8 64.9,37.9 64.9,32.9 C64.9,21.5 59,12 41.2,12 L16.9,12 L16.9,85.3 L41.6,85.3 C60.5,85.3 67,75.5 67,63.2 C67.1,56.7 64.8,50.3 59.5,46.6 M30.3,25 L41.5,25 C49.6,25 50.9,28.9 50.9,32.9 C50.9,36.8 49.3,40.9 42.3,40.9 L30.3,40.9 L30.3,25 M42.1,72.3 L30.3,72.3 L30.3,53.9 L42.3,53.9 C50.3,53.9 53.2,56.8 53.2,63.2 C53.2,67.7 51.3,72.3 42.1,72.3 M140.8,71.9 L140.8,12 L128.2,12 L128.2,74.1 C128.2,83.6 132.5,86.9 140.8,86.9 L144.2,86.9 L144.2,74.6 C141.7,74.6 140.8,73.8 140.8,71.9 M81.9,28.9 C86.2,28.9 89.8,25.4 89.8,21 C89.8,16.6 86.3,13 81.9,13 C77.6,13 74.1,16.6 74.1,21 C74.1,25.4 77.6,28.9 81.9,28.9 M114.4,71.9 L114.4,12 L101.8,12 L101.8,74.1 C101.8,83.6 106.1,86.9 114.4,86.9 L117.8,86.9 L117.8,74.6 C115.3,74.6 114.4,73.8 114.4,71.9 M88,71.9 L88,36.4 L75.5,36.4 L75.5,74 C75.5,83.5 79.8,86.8 88.1,86.8 L91.5,86.8 L91.5,74.6 C88.9,74.6 88,73.8 88,71.9"/>
    <polygon fill="#D1D2D4" points="135.3 73.1 135.3 96.9 158.8 73.1"/>
  </g>
</svg>
