<svg xmlns="http://www.w3.org/2000/svg" width="366" height="88" viewBox="0 0 366 88">
  <g fill="#0075C9">
    <path d="M88.8 5.6C88.8 3 86.6.8 84 .8L5.3.8C2.7.8.5 3 .5 5.6L.5 82.5C.5 85.1 2.7 87.3 5.3 87.3L84 87.3C86.6 87.3 88.8 85.1 88.8 82.5L88.8 5.6zM42.7 60.6C45.8 60.6 49.1 59.5 50.2 59.1 50.7 58.9 51 59.4 51 59.4 53.2 64.1 56.1 66.2 56.8 67.2 57.1 67.7 56.5 68 56.5 68 53 70.2 47.3 71.3 42.7 71.3 26.6 71.4 14 58.8 14 43.9 14 27.6 26.8 15.8 42.2 16.3 48.5 16.3 54.4 18.5 58.5 21.2 59.6 21.9 59.6 22.2 59.3 22.6 58.4 23.9 55.9 27.5 54.7 30.1 54.7 30.1 54.4 30.8 53.7 30.3 51.1 28.6 47.5 26.9 41.6 26.9 32.5 26.9 25.5 34 25.5 43.7 25.5 53.4 33.6 60.6 42.7 60.6zM67.2 61.4C62.9 61.4 59.4 57.9 59.4 53.6 59.4 49.3 62.9 45.8 67.2 45.8 71.5 45.8 75 49.3 75 53.6 75.1 57.9 71.5 61.4 67.2 61.4zM104.5 43.8C104.5 31.8 113.6 23.6 125.2 23.6 133.8 23.6 138.7 28.3 141.5 33.1L134.4 36.6C132.8 33.5 129.3 30.9 125.2 30.9 118.1 30.9 113 36.3 113 43.7 113 51.1 118.1 56.5 125.2 56.5 129.2 56.5 132.7 54 134.4 50.8L141.5 54.2C138.7 59 133.8 63.8 125.2 63.8 113.5 63.9 104.5 55.8 104.5 43.8M145 43.8C145 32.1 153.6 23.6 165.3 23.6 177.1 23.6 185.7 32 185.7 43.8 185.7 55.5 177.1 63.9 165.3 63.9 153.6 63.9 145 55.5 145 43.8M177.2 43.8C177.2 36.5 172.5 31 165.3 31 158.1 31 153.5 36.5 153.5 43.8 153.5 51 158.1 56.6 165.3 56.6 172.5 56.6 177.2 51 177.2 43.8"/>
    <polygon points="219.6 63.2 201 37.8 201 63.2 192.7 63.2 192.7 24.3 201.3 24.3 219.3 48.7 219.3 24.3 227.6 24.3 227.6 63.2"/>
    <path d="M234.6 43.8C234.6 31.8 243.6 23.6 255.3 23.6 263.9 23.6 268.9 28.3 271.6 33.1L264.5 36.6C262.9 33.5 259.4 30.9 255.3 30.9 248.3 30.9 243.1 36.3 243.1 43.7 243.1 51.1 248.2 56.5 255.3 56.5 259.3 56.5 262.8 54 264.5 50.8L271.6 54.2C268.8 59 263.9 63.8 255.3 63.8 243.6 63.9 234.6 55.8 234.6 43.8M277 47.7L277 24.3 285.4 24.3 285.4 47.4C285.4 52.8 288.5 56.6 294.6 56.6 300.6 56.6 303.7 52.9 303.7 47.4L303.7 24.3 312.2 24.3 312.2 47.7C312.2 57.4 306.5 64 294.6 64 282.7 64 277 57.3 277 47.7M342.4 63.2L334.7 49.4 328.6 49.4 328.6 63.2 320.3 63.2 320.3 24.2 338.5 24.2C346.6 24.2 351.6 29.5 351.6 36.8 351.6 43.7 347.3 47.4 343.1 48.4L351.9 63.2 342.4 63.2 342.4 63.2zM343.2 36.8C343.2 33.5 340.7 31.5 337.4 31.5L328.7 31.5 328.7 42 337.4 42C340.7 42.1 343.2 40.1 343.2 36.8L343.2 36.8zM365.5 59.1C365.5 61.8 363.3 64 360.6 64 357.8 64 355.6 61.8 355.6 59.1 355.6 56.4 357.8 54.3 360.6 54.3 363.4 54.3 365.5 56.4 365.5 59.1zM356.8 59.1C356.8 61.3 358.4 63 360.6 63 362.7 63 364.3 61.3 364.3 59.2 364.3 57 362.7 55.3 360.6 55.3 358.4 55.2 356.8 57 356.8 59.1zM359.8 61.6L358.7 61.6 358.7 56.8C359.1 56.7 359.8 56.6 360.6 56.6 361.5 56.6 361.9 56.8 362.3 57 362.6 57.2 362.8 57.6 362.8 58.1 362.8 58.6 362.4 59 361.8 59.2L361.8 59.3C362.3 59.5 362.5 59.8 362.7 60.5 362.9 61.2 362.9 61.5 363.1 61.7L361.9 61.7C361.7 61.5 361.7 61.1 361.5 60.5 361.4 60 361.1 59.7 360.5 59.7L360 59.7 359.8 61.6 359.8 61.6zM359.8 58.9L360.3 58.9C360.9 58.9 361.4 58.7 361.4 58.2 361.4 57.8 361.1 57.5 360.4 57.5 360.1 57.5 359.9 57.5 359.8 57.6L359.8 58.9 359.8 58.9z"/>
  </g>
</svg>
