<svg xmlns="http://www.w3.org/2000/svg" width="120" height="31" viewBox="0 0 120 31">
  <g fill="#006196" fill-rule="evenodd">
    <path d="M103.1174,17.798 L112.0274,7.457 L106.0994,7.457 L98.1894,17.117 L98.1424,17.117 L98.1424,0.004 L98.1344,0.004 L98.1404,0.001 L93.3524,0.001 L93.3524,30.236 L98.1424,30.236 L98.1424,19.107 L98.1894,19.107 C98.1894,19.107 102.5314,24.804 107.3724,30.236 L113.6154,30.236 C107.0964,22.909 103.1174,17.798 103.1174,17.798"/>
    <polygon points="52.37 .005 47.45 .008 47.466 0 47.472 30.236 52.36 30.236 52.36 .01"/>
    <path d="M44.0471 19.9952L29.9801 19.9952 29.9801 20.7142C29.9801 23.7472 31.4781 26.7342 35.8611 26.7342 38.4421 26.7342 40.7451 26.0542 42.7361 25.0572L43.0091 28.9512C41.2421 29.9872 38.5301 30.6692 35.3641 30.6692 27.1781 30.6692 25.1441 25.8732 25.1441 18.8182 25.1441 11.7602 27.9911 6.8772 35.2761 6.8772 40.7001 6.8772 44.1401 9.7222 44.1401 17.4152 44.1401 17.9142 44.0471 19.9952 44.0471 19.9952M35.1391 10.3602C31.4781 10.3602 29.9361 13.5272 29.9361 16.6032L39.5251 16.6032C39.5251 13.4812 38.8941 10.3602 35.1391 10.3602M64.593 30.715C60.478 30.715 58.712 28.54 58.757 24.562L58.801 11.444 55.11 11.444 55.11 7.465 58.801 7.465 58.846 1.722 63.687 1.722 63.643 7.465 69.522 7.465 69.522 11.444 63.643 11.444 63.598 23.792C63.598 25.784 64.364 26.735 66.175 26.735 67.575 26.735 69.249 26.103 69.249 26.103L69.522 29.717C69.522 29.717 67.26 30.715 64.593 30.715M90.1487 20.1632L76.0877 20.1632 76.0877 20.8852C76.0877 23.9202 77.5767 26.9022 81.9607 26.9022 84.5407 26.9022 86.8487 26.2222 88.8357 25.2292L89.1107 29.1202C87.3437 30.1562 84.6297 30.8372 81.4637 30.8372 73.2797 30.8372 71.2457 26.0442 71.2457 18.9872 71.2457 11.9322 74.0907 7.0462 81.3757 7.0462 86.8017 7.0462 90.2397 9.8952 90.2397 17.5832 90.2397 18.0842 90.1487 20.1632 90.1487 20.1632M81.2427 10.5292C77.5767 10.5292 76.0397 13.6952 76.0397 16.7712L85.6247 16.7712C85.6247 13.6512 84.9927 10.5292 81.2427 10.5292M117.4534 28.172L117.6684 28.172C117.9204 28.172 118.1254 28.088 118.1254 27.884 118.1254 27.704 117.9924 27.584 117.7054 27.584 117.5844 27.584 117.5004 27.597 117.4534 27.609L117.4534 28.172zM117.4414 29.276L116.9844 29.276 116.9844 27.309C117.1654 27.284 117.4164 27.248 117.7404 27.248 118.1124 27.248 118.2804 27.309 118.4124 27.404 118.5324 27.488 118.6164 27.632 118.6164 27.824 118.6164 28.065 118.4354 28.22 118.2094 28.292L118.2094 28.316C118.4004 28.376 118.4964 28.531 118.5574 28.796 118.6164 29.096 118.6644 29.203 118.7004 29.276L118.2214 29.276C118.1604 29.203 118.1254 29.035 118.0644 28.796 118.0284 28.592 117.9084 28.496 117.6564 28.496L117.4414 28.496 117.4414 29.276zM116.2294 28.256C116.2294 29.132 116.8894 29.827 117.7644 29.827 118.6164 29.839 119.2644 29.132 119.2644 28.268 119.2644 27.393 118.6164 26.685 117.7404 26.685 116.8894 26.685 116.2294 27.393 116.2294 28.256L116.2294 28.256zM119.7674 28.256C119.7674 29.359 118.8804 30.235 117.7524 30.235 116.6254 30.235 115.7254 29.359 115.7254 28.256 115.7254 27.152 116.6254 26.289 117.7644 26.289 118.8804 26.289 119.7674 27.152 119.7674 28.256L119.7674 28.256zM22.345 15.3077C22.345 5.1747 19.313.0667 7.963.0667L0 .0667 0 30.2367 9.409 30.2367C20.266 30.2367 22.345 24.9377 22.345 15.3077L22.345 15.3077zM17.231 17.3867C17.231 24.0397 13.883 26.1167 9.228 26.1167L4.931 26.1167 4.931 4.1787 7.6 4.1787C14.339 4.1787 17.231 6.5297 17.231 13.0477L17.231 17.3867z"/>
  </g>
</svg>
