<svg xmlns="http://www.w3.org/2000/svg" width="153" height="31" viewBox="0 0 153 31">
  <g>
    <polygon points="19 15.497 14.822 15.497 14.822 10.826 13.179 10.826 13.179 15.497 9 15.497 9 17.157 13.179 17.157 13.179 21.826 14.822 21.826 14.822 17.157 19 17.157"/>
    <polygon points="11 21.731 7.636 21.731 7.636 17.826 6.363 17.826 6.363 21.731 3 21.731 3 22.921 6.363 22.921 6.363 26.826 7.636 26.826 7.636 22.921 11 22.921"/>
    <polygon points="26 8.75 22.637 8.75 22.637 4.826 21.363 4.826 21.363 8.75 18 8.75 18 9.939 21.363 9.939 21.363 13.826 22.637 13.826 22.637 9.939 26 9.939"/>
    <polygon points="18 26.76 15.577 26.76 15.577 23.826 14.423 23.826 14.423 26.76 12 26.76 12 27.892 14.423 27.892 14.423 30.826 15.577 30.826 15.577 27.892 18 27.892"/>
    <polygon points="11 8.749 7.597 8.749 7.597 4.826 6.403 4.826 6.403 8.749 3 8.749 3 9.904 6.403 9.904 6.403 13.826 7.597 13.826 7.597 9.904 11 9.904"/>
    <polygon points="30 15.76 27.577 15.76 27.577 12.826 26.423 12.826 26.423 15.76 24 15.76 24 16.892 26.423 16.892 26.423 19.826 27.577 19.826 27.577 16.892 30 16.892"/>
    <polygon points="26 21.731 22.637 21.731 22.637 17.826 21.363 17.826 21.363 21.731 18 21.731 18 22.921 21.363 22.921 21.363 26.826 22.637 26.826 22.637 22.921 26 22.921"/>
    <polygon points="14.543 .826 14.543 3.432 12 3.432 12 4.22 14.543 4.22 14.543 6.826 15.457 6.826 15.457 4.22 18 4.22 18 3.432 15.457 3.432 15.457 .826"/>
    <polygon points="2.552 12.826 2.552 15.41 0 15.41 0 16.241 2.552 16.227 2.552 18.826 3.448 18.826 3.448 16.222 6 16.208 6 15.41 3.448 15.41 3.448 12.826"/>
    <path d="M42.8648625 31.1096244C43.1635067 31.2929717 43.4866702 31.3841444 43.8343529 31.3841444 44.5375644 31.3841444 44.9377183 31.055021 44.9377183 30.5355372 44.9377183 30.2199394 44.8156125 29.9774802 44.5694394 29.8226871 44.3620067 29.6924404 44.1246606 29.6137914 43.8750548 29.5176093 43.621526 29.4214271 43.4989298 29.3172298 43.4989298 29.1995068 43.4989298 29.0542317 43.6386894 28.9700723 43.9079106 28.9700723 44.1653625 28.9700723 44.4640067 29.0717649 44.820026 29.2546112L44.820026 28.669503C44.5007856 28.5107022 44.1776221 28.4355599 43.8711317 28.4355599 43.2292183 28.4355599 42.8163144 28.7822165 42.8163144 29.2581178 42.8163144 29.7755979 43.160074 30.0145504 43.8627952 30.2660267 44.1079875 30.3521899 44.2345067 30.4077952 44.2345067 30.5786188 44.2345067 30.7449337 44.0913144 30.8331007 43.8176798 30.8331007 43.5028529 30.8331007 43.2164683 30.6958408 42.8648625 30.4739205L42.8648625 31.1096244zM57.3043846 29.9101026C57.3043846 29.3961292 57.6388269 29.0334423 58.1012596 29.0334423 58.5641827 29.0334423 58.8996058 29.3961292 58.8996058 29.9101026 58.8996058 30.4235751 58.5641827 30.7827554 58.1012596 30.7827554 57.6388269 30.7827554 57.3043846 30.4235751 57.3043846 29.9101026M56.5845 29.9101026C56.5845 30.3319015 56.7365192 30.6990969 57.0229038 30.9751197 57.3043846 31.2471349 57.6608942 31.3838939 58.1012596 31.3838939 58.5435865 31.3838939 58.9035288 31.2471349 59.1850096 30.9751197 59.4713942 30.6990969 59.6234135 30.3349072 59.6234135 29.9101026 59.6234135 29.4837952 59.4713942 29.1221102 59.1850096 28.840577 58.9035288 28.5685618 58.5435865 28.4358104 58.1012596 28.4358104 57.6608942 28.4358104 57.3043846 28.5685618 57.0229038 28.840577 56.7365192 29.1221102 56.5845 29.4837952 56.5845 29.9101026"/>
    <polygon points="72.017 31.334 72.717 31.334 72.717 30.16 73.755 30.16 73.755 29.627 72.717 29.627 72.717 29.007 73.825 29.007 73.825 28.482 72.017 28.482"/>
    <polygon points="86.874 31.334 87.61 31.334 87.61 29.012 88.534 29.012 88.534 28.482 85.95 28.482 85.95 29.012 86.874 29.012"/>
    <polygon points="100.935 31.36 101.221 31.36 101.855 29.575 102.485 31.36 102.775 31.36 103.909 28.482 103.176 28.482 102.637 30.04 102.089 28.482 101.621 28.482 101.074 30.031 100.531 28.482 99.803 28.482"/>
    <path d="M115.636419 30.2906734L116.069919 29.2041155 116.462227 30.2906734 115.636419 30.2906734zM114.466362 31.3341497L115.211746 31.3341497 115.435852 30.7790984 116.637785 30.7790984 116.838842 31.3341497 117.579323 31.3341497 116.490179 28.4817474 115.684967 28.4817474 114.466362 31.3341497zM129.950011 29.6503106L129.614587 29.6503106 129.614587 28.9875554 129.950011 28.9875554C130.202559 28.9875554 130.334962 29.1072821 130.334962 29.3171797 130.334962 29.5436085 130.211386 29.6503106 129.950011 29.6503106L129.950011 29.6503106zM128.91628 31.3339994L129.614587 31.3339994 129.614587 30.1728002C129.642539 30.1728002 129.667059 30.1682916 129.695991 30.1682916 129.970607 30.1682916 130.093203 30.2569596 130.202559 30.5114415L130.559068 31.3339994 131.348587 31.3339994 130.902337 30.3561474C130.819953 30.1728002 130.709616 30.0525725 130.570837 29.9969671 130.907732 29.8431759 131.05828 29.6212556 131.05828 29.3081626 131.05828 28.737081 130.693924 28.4815971 129.945107 28.4815971L128.91628 28.4815971 128.91628 31.3339994z"/>
    <polygon points="142.939 31.334 144.841 31.334 144.841 30.8 143.638 30.8 143.638 30.119 144.755 30.119 144.755 29.589 143.638 29.589 143.638 29.007 144.808 29.007 144.808 28.482 142.939 28.482"/>
    <path d="M80.4264606,21.0202157 C82.3355279,21.0202157 83.4300663,19.902599 83.4300663,17.9118286 C83.4300663,15.9541208 82.3291529,14.779396 80.6123163,14.779396 C79.8649702,14.779396 79.1568548,15.043396 78.6380279,15.2853542 L78.6380279,20.6670468 C79.2691529,20.9034947 79.8585952,21.0202157 80.4264606,21.0202157 L80.4264606,21.0202157 Z M78.6380279,13.3587053 C79.6006529,12.9719728 80.4553933,12.8577565 81.0026625,12.8577565 C83.7321433,12.8577565 85.5764798,14.8174681 85.5764798,17.8902878 C85.5764798,21.0773239 83.6384798,22.9398514 80.2209894,22.9398514 C79.0357298,22.9398514 77.8735183,22.7059083 76.6524606,22.2831076 L76.5945952,8.18841306 L78.6380279,8.18841306 L78.6380279,13.3587053 Z"/>
    <polygon points="94.071 24.709 96.094 24.709 96.094 6.21 94.071 6.21"/>
    <path d="M109.5531 22.9780237C106.437687 22.6694392 104.919946 20.4322021 105.007235 17.7796783 105.101388 14.9152533 106.916302 12.8824032 109.683542 12.8824032 112.586619 12.8824032 114.268148 15.0765588 114.123975 18.3131888L107.135994 18.3131888C107.303215 20.1060844 108.357052 20.9551926 109.797312 21.067906 110.996302 21.1630863 112.6896 20.8855607 113.606619 20.2974468L113.606619 22.2691812C112.398312 22.8698188 111.139985 23.1353216 109.5531 22.9780237M107.262023 16.7928093L111.905965 16.7928093C111.853494 15.5304184 111.189513 14.8751774 110.006706 14.7975303 108.816052 14.7193823 107.662177 15.5013633 107.262023 16.7928093M144.112269 21.350892C145.394625 21.350892 146.260154 20.6831273 146.260154 19.1877952L146.260154 13.0677041 148.304567 13.0677041 148.304567 19.4452829C148.304567 21.5768199 146.684827 22.8772829 144.111288 22.8772829 141.539712 22.8772829 139.919971 21.5768199 139.919971 19.4452829L139.919971 13.0677041 141.962913 13.0677041 141.962913 19.1877952C141.962913 20.6831273 142.831385 21.350892 144.112269 21.350892M62.9306163 21.0202157C63.3959913 21.0132024 63.9609144 20.978136 64.6803087 20.792785L64.7185587 15.4531721C64.0638952 14.994804 63.4327702 14.779396 62.745251 14.779396 61.027924 14.779396 59.927501 15.9541208 59.927501 17.9118286 59.927501 19.902599 61.0220394 21.0477679 62.9306163 21.0202157M63.1360875 22.9398997C59.7190875 22.9508723 57.7805971 21.0773239 57.7805971 17.8902878 57.7805971 14.8174681 59.6264048 12.8577565 62.353924 12.8577565 63.2753567 12.8577565 64.0364337 13.0661512 64.7185587 13.517506L64.7185587 12.8131721 66.761501 12.8131721 66.704126 22.2831076C65.8444817 22.6648305 64.4326644 22.9353429 63.1360875 22.9398997"/>
    <polygon points="42.575 8.856 44.598 8.856 44.598 14.723 50.064 14.723 50.064 16.651 44.598 16.651 44.598 23.013 42.575 23.013 42.575 16.651 37.108 16.651 37.108 14.723 42.575 14.723"/>
    <path d="M151.436458 14.1798605L151.593381 14.1798605C151.771881 14.1798605 151.920958 14.1132343 151.920958 13.9424108 151.920958 13.8216821 151.835631 13.7009535 151.593381 13.7009535 151.524237 13.7009535 151.475198 13.705963 151.436458 13.7119744L151.436458 14.1798605zM151.436458 14.9448093L151.221669 14.9448093 151.221669 13.5631926C151.334948 13.5466613 151.442833 13.529629 151.604169 13.529629 151.810131 13.529629 151.943515 13.5747144 152.024919 13.6343273 152.104852 13.695443 152.148496 13.7886195 152.148496 13.92087 152.148496 14.1022134 152.029823 14.2124222 151.88516 14.2575076L151.88516 14.2670256C152.001871 14.2900692 152.084256 14.3992761 152.109756 14.6036632 152.142121 14.8180692 152.175467 14.9007258 152.195573 14.9448093L151.970487 14.9448093C151.937631 14.9007258 151.905265 14.7744867 151.879275 14.5926423 151.846419 14.4158074 151.759621 14.3501831 151.587987 14.3501831L151.436458 14.3501831 151.436458 14.9448093zM151.663996 13.177963C151.129967 13.177963 150.693035 13.6463501 150.693035 14.223443 150.693035 14.8125588 151.129967 15.2749345 151.66841 15.2749345 152.208323 15.2814468 152.63839 14.8125588 152.63839 14.2289535 152.63839 13.6463501 152.208323 13.177963 151.66841 13.177963L151.663996 13.177963zM151.66841 12.9855986C152.330919 12.9855986 152.859554 13.5351394 152.859554 14.223443 152.859554 14.9232685 152.330919 15.4672988 151.663996 15.4672988 150.999525 15.4672988 150.461573 14.9232685 150.461573 14.223443 150.461573 13.5351394 150.999525 12.9855986 151.663996 12.9855986L151.66841 12.9855986zM127.498578 21.0202264C127.901184 21.0192138 128.527405 20.978136 129.24827 20.792785L129.28603 15.4531721C128.631366 14.994804 127.999261 14.779396 127.312722 14.779396 125.594905 14.779396 124.494972 15.9541208 124.494972 17.9118286 124.494972 19.902599 125.588039 21.0242233 127.498578 21.0202264M127.703068 22.9398997C124.285578 22.9508723 122.348068 21.0773239 122.348068 17.8902878 122.348068 14.8174681 124.192405 12.8577565 126.920905 12.8577565 127.841357 12.8577565 128.602924 13.0661512 129.28603 13.517506L129.28603 12.8131721 131.328972 12.8131721 131.270126 22.2831076C130.411953 22.6648305 129.000136 22.9353429 127.703068 22.9398997"/>
  </g>
</svg>
